/* XPM */
static char *_d43f77b88ad4f1cb3a311d707ce95d5MT5DRv1YfyfoeKVw[] = {
/* columns rows colors chars-per-pixel */
"48 48 228 2 ",
"   c #171A1E",
".  c #1C1E24",
"X  c #1E1E29",
"o  c #251F27",
"O  c #1D2024",
"+  c #242225",
"@  c #2C2326",
"#  c #24222B",
"$  c #2B252B",
"%  c #2E282F",
"&  c #31262B",
"*  c #332A2B",
"=  c #3B2E2E",
"-  c #3B312E",
";  c #2D2A33",
":  c #262431",
">  c #332B33",
",  c #3B2E33",
"<  c #322E39",
"1  c #3C2F38",
"2  c #3C3235",
"3  c #3B353A",
"4  c #38353A",
"5  c #2C3032",
"6  c #432F33",
"7  c #443335",
"8  c #443539",
"9  c #463A3C",
"0  c #4C3B3C",
"q  c #4B3637",
"w  c #523B3B",
"e  c #3D413D",
"r  c #56413E",
"t  c #3F3942",
"y  c #443A42",
"u  c #4B3E42",
"i  c #413740",
"p  c #533E42",
"a  c #5C3D41",
"s  c #633F44",
"d  c #3F4442",
"f  c #454443",
"g  c #4C4242",
"h  c #4D4B4A",
"j  c #494749",
"k  c #544343",
"l  c #5C4544",
"z  c #5D4A46",
"x  c #55454A",
"c  c #5B474A",
"v  c #524C4B",
"b  c #5C4C4C",
"n  c #544946",
"m  c #5C514C",
"M  c #5A4C52",
"N  c #5C5353",
"B  c #5B5857",
"V  c #4F5A57",
"C  c #634B4C",
"Z  c #694C4D",
"A  c #644748",
"S  c #65524D",
"D  c #6B534D",
"F  c #69594B",
"G  c #644E53",
"H  c #6C4D52",
"J  c #724E53",
"K  c #645453",
"L  c #6A5453",
"P  c #655954",
"I  c #6D5A55",
"U  c #6D5559",
"Y  c #6E5C5A",
"T  c #64565A",
"R  c #735455",
"E  c #755B55",
"W  c #735659",
"Q  c #745C5C",
"!  c #795C5B",
"~  c #7B5758",
"^  c #5B645F",
"/  c #6B635E",
"(  c #74615C",
")  c #7B635C",
"_  c #75665A",
"`  c #6A5E60",
"'  c #755A61",
"]  c #7A5D63",
"[  c #766463",
"{  c #7C6463",
"}  c #7C6A64",
"|  c #7C6D6B",
" . c #766869",
".. c #7C726C",
"X. c #767269",
"o. c #7A7874",
"O. c #6B6A67",
"+. c #815C5E",
"@. c #81655D",
"#. c #81695E",
"$. c #805C61",
"%. c #826564",
"&. c #836C63",
"*. c #8A6D66",
"=. c #846C6A",
"-. c #8A6D6B",
";. c #846669",
":. c #84736C",
">. c #8C736D",
",. c #877468",
"<. c #93746D",
"1. c #96776F",
"2. c #876E71",
"3. c #847272",
"4. c #8C7472",
"5. c #8D7B74",
"6. c #897A75",
"7. c #937672",
"8. c #947B74",
"9. c #9B7C75",
"0. c #9D767A",
"q. c #947C7A",
"w. c #9B7D7A",
"e. c #977775",
"r. c #906F6E",
"t. c #A27D76",
"y. c #A47C7B",
"u. c #A97D7E",
"i. c #78817C",
"p. c #8A837B",
"a. c #9D8177",
"s. c #95837B",
"d. c #9C837C",
"f. c #9E8A7D",
"g. c #948578",
"h. c #A4837B",
"j. c #A9857C",
"k. c #A2897D",
"l. c #AB897E",
"z. c #A28177",
"x. c #977F81",
"c. c #9B7E82",
"v. c #A37E81",
"b. c #AA7F81",
"n. c #8C8B82",
"m. c #9C8583",
"M. c #9E8A83",
"N. c #968B85",
"B. c #9C928D",
"V. c #989388",
"C. c #9E9994",
"Z. c #999992",
"A. c #8D9189",
"S. c #A38483",
"D. c #AC8483",
"F. c #A38B83",
"G. c #AC8B83",
"H. c #A38C8A",
"J. c #AC8C8B",
"K. c #A48588",
"L. c #B28D84",
"P. c #B38C8B",
"I. c #B18785",
"U. c #A59284",
"Y. c #AA9285",
"T. c #A4948D",
"R. c #AC948B",
"E. c #AC9A8A",
"W. c #A79A8B",
"Q. c #B29286",
"!. c #B4938B",
"~. c #BA948D",
"^. c #B49B8D",
"/. c #BA9B8E",
"(. c #AB9C93",
"). c #A59A94",
"_. c #B69791",
"`. c #BC9592",
"'. c #B49B92",
"]. c #BC9B93",
"[. c #BE9E98",
"{. c #B6969A",
"}. c #B28E92",
"|. c #9DA79C",
" X c #B7A18F",
".X c #A9A198",
"XX c #B4A391",
"oX c #BBA296",
"OX c #BDA39B",
"+X c #B6A29E",
"@X c #BE9FA3",
"#X c #AAADA3",
"$X c #A7ABA5",
"%X c #B9A6A4",
"&X c #B2B6AF",
"*X c #C19D94",
"=X c #C59E99",
"-X c #C89F9C",
";X c #C5A395",
":X c #C4A49B",
">X c #CAA49D",
",X c #C7A99E",
"<X c #CCAA9E",
"1X c #C9A697",
"2X c #D0AE9F",
"3X c #CAA6A2",
"4X c #CDADA3",
"5X c #CAABA2",
"6X c #C6A8A6",
"7X c #CFB1A5",
"8X c #C5B0AB",
"9X c #D0B1A6",
"0X c #C8B7B9",
"qX c #D0AFA2",
"wX c #B9C2BA",
"eX c #C6C6BD",
"rX c #CBBEC0",
"tX c #BBC9C4",
"yX c #C9CAC5",
"uX c #DCDADA",
"iX c #CCD1CB",
"pX c #D6E3DE",
"aX c #D5EBE6",
"sX c #DBF3EE",
"dX c #E3EAE8",
"fX c #E8F7F4",
"gX c #F1FBF9",
"hX c #E8F1EE",
/* pixels */
"|.i.j p.XX XXXXX X Xl.l.l.l.l.z.l.l.l./.~.~.~.~.~.~.~.~.~.*X*X;X3X:X5X5X5X4X4X4X7X9X9X7X2X<X1X*X",
"|.o.h p.XXXXXX XXXl.l.f.l.l.z.z.z.l.l.Q.L.~.~.L.~.~.~.~.~.;X*X*X:X3X6X,X5X5X4X7X4X9X7X4X<X<X1X*X",
"$Xi.h A.XXE.E.E.l.f.f.a.f.l.z.z.t.j.l.L.L.~.~.L.L.L.L.L.~.~.~.*X[.OX:X:X5X5X5X<X7X7X7X7X2X<X;X*X",
"|.i.V V.f.f.g.f.f.f.a.a.f.f.a.z.t.j.l.l.L.~.L.L.L.L.L.~.P.~.~.L.].[.:X:X:X5X5X6X<X7X7X4X2X<X1X].",
"|.X.^ p.p.i.} p.g.g.g.g.9.t.1.9.t.t.z.l.L.L.L.L.L.L.G.G.P.P.P._._.'.[.6X:X6X6X,X,X5X7X7X<X,X1X*X",
"Z.X.B X./ / F F _ X.#.g.<.<.<.9.t.t.t.j.l.L.L.L.L.l.G.G.D.P.P.J.!.'.[.OXOXOX:X,X,X,X,X7X5X<X;X*X",
"i.^ V F m m r r r m F _ #.#.r.1.1.t.t.z.j.L.L.l.l.l.j.D.D.J.J.D.G.!.'.].].OXoX].OX,X<X5X4X>X1X*X",
"^ V h h r r e * 2 2 r S F #.*.<.1.1.t.t.j.l.l.l.j.j.j.j.b.D.D.S.K.R.}.'.'.'.'.'.'.oX:X,X3X>X*X].",
"r r h V K m g - * % 4 9 r L ) *.<.1.t.t.j.l.l.j.j.z.j.h.y.y.v.w.9.S.H.F.S.F.m.M.F.R.oX,X1X1X;X/.",
"e e m _ [ Y b 8 * $ @ * = k I ) r.<.1.t.y.h.j.j.j.z.h.t.w.w.e.-.=.-.>.4.=.:.=.:.>.d.W.oX;X;X XQ.",
"e d / i.:...( z - @ + @ @ 7 l D +.1.1.t.t.y.j.j.z.z.9.9.7.>.;.U D L I Y Y Y L L ( :.s.E./.*X*X/.",
"e r _ g.>.6.&./ r - @ + o % q A +.1.9.t.t.t.h.h.z.1.>.,.=.{ L p 0 0 k w k k x b K / &.g.l.Q.^./.",
"e d X.g.,.,.,.} F k 7 o o @ 6 w +.*.t.z.y.t.t.h.w.-.{ { Q G u 8 , = - = 7 8 k x c C K _ <.f.l.E.",
"d f X.g.,.,.,.,.) P k > $ o & q F *.1.z.h.9.t.y.4.{ Y Y N k 1 1 > * * * 2 u M b c C C L ) >.f.k.",
"d h i.g.*.,.&.,.} Y M y > o & 6 F *.a.z.j.y.y.w.;.Q U T x 8 < > & & * = 9 M U U ' ' ] Q E &.>.9.",
"V V i.,.&.} ) #.{ Q L x i > & 7 m &.a.j.D.h.h.9.} E U G p 1 1 > > , 2 0 P  .2.2.5.q.e.4.=.%.;.4.",
"i.O.o.:.} _ ) ) ) ( U n r 6 - 7 z *.a.k.F.l.S.d.{ Q Q G 9 6 1 i f g x P { 3.5.x.c.m.w.w.w.7.=.;.",
"&Xp.o.6.Y ( } } } } I n r q 7 q z &.a.k.G.G.F.a.&.Q Q C 0 y p G b F I { =.5.q.w.d.K.S.K.K.d.7.-.",
"tXn.6.o.K / :.| | :.( C r 2 7 q A #.a.k.G.R.U.d.*.{ Q G l C U L F _ ) | -.7.q.d.d.d.S.S.S.K.c.w.",
"wXA.p...K  .:.[ ( ( / F C 0 7 q A &.a.k.Y.^.U.d.4.&.] U U Y Y F F I _ } -.<.7.8.9.d.k.F.S.D.S.d.",
"iXA.p.X.P O.` B n j h m S k 7 7 r ,.a.G.E.^.R.d.9.4.%.) ( ( I D S D R ) ;.2.r.6.s.d.w.d.S.S.S.k.",
"iXA.V.X.K B f 4 ; 5 5 4 h n 0 6 r &.k.Y.R.^._.G.w.<.*.@.) ( L C A Z R ) =.2.4.2.7.q.w.w.d.w.S.S.",
"eXA.g.X.P f % $ + O O O 4 r r 7 r #.k.Q.!.'._.J.a.7.*.#.! E S A C C Y { =.2.x.2.>.4.8.w.w.w.h.m.",
"eXp.A...m 3 % 5 % + O   $ * 9 q r } k.E.!.'._.G.d.7.*.%.Q I C l C L ' | ..3.3.2.4.=.-.e.9.w.w.w.",
"wXg.A...h 4 4 e 4 # O     @ 9 r r &.Y.!./.'.^.G.a.7.-.) W H A C G G U `  . .o.3.3.=.%.*.<.9.w.w.",
"wXp.g._ r 4 r v f $ . . O $ q k r &.Y.!._./.!.l.9.7.=.] R J C C C k k j M M ` O.=.=.@.@.;.7.8.9.",
"#Xp.g./ r h h v j ; # . # > q r z &.R.~.].!.!.l.9.>.-.{ W J H A p 7 3 < < < t h ` { %.! #.>.7.8.",
"#Xf.p._ v B N m h < # $ $ 8 k l D >.!.].].].Q.j.8.<.>.{ W J H p 6 , 2 < : X : t x Y @.! E &.1.8.",
"#Xn.g.:./ B N K v t ; ; * w l l E 1.!.*X*X].Q.h.1.4.4.;.$.W s a 6 q g 4 : X o $ < x I ! E #.<.8.",
"#XV.V.5.| P m b b g 2 2 q r a a E a./.*X-X].P.t.1.>.4.-.$.~ s q A P T t : X # $ > 8 w L E ) <.7.",
"#XV.B.f.5.E m n b b x x l A r s ! F.].-X-X].L.t.1.7.q.8.r.J s s U  .O.j ; : : ; 4 7 7 x E @.>.q.",
"#XV.W.F.s.} K k x b G L F R Z D &.G.*X-X:X*XI.t.7.9.c.v.r.J J s W { o.M t ; ; ; 3 3 2 q D @.>.q.",
"#XV.W.U.k.,.I k k c C K I E E ) >.'.-X>X>X~.I.t.e.9.d.M.7.~ J J ~ ) | T t ; ; t y y 3 9 A #.,.1.",
"#XZ.W.E.k.6.[ P C c A C Z D ! ) 8.].:X>X>X*XD.y.e.w.F.F.0.r.%.+.R E } T i < < y M u y r A ) ,.1.",
"#XV..XE.f.5. .( L C A H C b I ) t.;X>X>X>X~.b.y.9.q.M.M.w.<.r.$.! ! ! Y c i y x M c c l D @.*.1.",
".XZ.W.E.k.5._ ( I L C A C S D E j.:X>X3X>X~.j.u.w.s.d.s.1.r.;.$.! Q Q U G M C b M H U R ) &.,.a.",
"Z.W.XXW.k.5._ I I H A A C G S ) J.:X>X>X-X*Xb.b.0.9.w.q.>.=.$.~ W W W G G T G G K Q ) ) *.>.1.a.",
"Z.).E.E.f.5.} ( S Z A C L L P &.`.-X>X>X-X*Xb.b.t.w.w.e.=.;.] ' ' W W H G U T U ! { =.>.1.8.g.a.",
"Z..XXXE.k.g.,.} Y I U W W L I >.=X-X-X-X-XP.b.b.t.0.w.e.4.;.] ' ' ! ' W ' ` ] ;.=.>.4.8.g.a.k.F.",
"Z.E.XXW.E.f.p.,.} ! ) ! Q Y ) d.-X-X3X-X-X*X*Xb.y.t.t.0.q.4.;.' ' ' ] ] ] 2.2.6.5.q.8.9.a.d.G.E.",
").(.(.E.U.f.d.s.4.=.;.{ ! [ =.H.-X6X3X3X3X=Xb.b.u.u.0.0.x.x.4.] ' ' ] ] =.4.4.q.8.q.q.d.d.k.Y./.",
"C.(.XXE.W.B.M.s.8.:.=.%.{ | 4.T.@X6X6X3X@X`.=Xb.u.0.0.c.x.x.x.4.2.] ' ] { :.4.5.q.q.d.d.f.F.E.'.",
"C.(.'.E.Y.U.F.d.q.5.4.=.2.n.B.%X@X6X6X6X3X{.}.}.b.0.0.v.c.c.x.q.4.2. .] { %.=.3.5.s.d.d.F.R.'.oX",
").(.E.R.E.T.M.M.s.5.5.4.q.$X0XyXrXrXrX0X6X@X{.b.v.0.0.v.v.v.m.x.c.x.4.2.2.;.=.3.5.q.d.M.H.E.OX:X",
"C.).).R.R.J.H.M.N.6.6.x.N.wXpXdXdXuXiXrXrX$X{.{.b.c.c.v.D.S.m.c.c.c.c.x.q.4.4.6.s.m.M.T.T.(.%X5X",
".X).T.R.R.T.F.M.M.x.x.x.|.tXsXfXfXgXhXuXrX0X%X{.b.v.c.v.S.K.K.K.c.c.x.x.m.x.x.s.M.M.H.R.(.[.%X5X",
"$X(.(._.R.J.F.F.H.M.B.C.$XwXaXsXfXgXgXfXdXuXrX@X{.v.v.v.K.K.K.H.c.K.K.B.H.B.m.V.V.H.T.(.+XOX6X<X",
"&X$X).(.(.B.B.B.C.).|.$X&XtXiXaXsXhXfXhXdXdXuXyX&X{.B.c.K.H.H.K.K.N.K.B.B.B.B.B.B.T.)..X%X&X8X5X"
};
