/* XPM */
static char *_c15531df33b4e9fa6a9f457196ba86bzuHUrfzz8YvLA2cO[] = {
/* columns rows colors chars-per-pixel */
"48 48 97 2 ",
"   c #6F6F6F",
".  c #767676",
"X  c #7C7C7C",
"o  c #807F7F",
"O  c #6D8B88",
"+  c #7D8181",
"@  c #718F8C",
"#  c #7E8B8A",
"$  c #75908D",
"%  c #7AB2AC",
"&  c #0EEFD8",
"*  c #1FE5D0",
"=  c #1EEFDA",
"-  c #0EF0D9",
";  c #13F4DD",
":  c #21E6D2",
">  c #25EAD6",
",  c #27EDD8",
"<  c #21F4DF",
"1  c #2EF3DF",
"2  c #00FFE6",
"3  c #0FFFE8",
"4  c #13F7E0",
"5  c #11FFE7",
"6  c #1DFFE8",
"7  c #25F5E0",
"8  c #2EF4E0",
"9  c #21FEE7",
"0  c #2DFEE8",
"q  c #38FFEB",
"w  c #7FEFE5",
"e  c #71FFF1",
"r  c #7FFFF4",
"t  c #828282",
"y  c #828E8D",
"u  c #8B8C8C",
"i  c #84908F",
"p  c #849190",
"a  c #969696",
"s  c #989697",
"d  c #9B9B9B",
"f  c #87A29F",
"g  c #86A3A0",
"h  c #89A6A3",
"j  c #8BA8A5",
"k  c #96A3A1",
"l  c #9AA6A5",
"z  c #9CA8A7",
"x  c #9DA9A8",
"c  c #87B2AD",
"v  c #8BB2AE",
"b  c #97B2AF",
"n  c #9AB6B3",
"m  c #9AB9B6",
"M  c #A6A6A6",
"N  c #A8A7A7",
"B  c #A6AAA9",
"V  c #ACACAC",
"C  c #B0AFAF",
"Z  c #A3B2B0",
"A  c #ABB6B5",
"S  c #ABB9B7",
"D  c #ACB9B8",
"F  c #B1B1B1",
"G  c #B7B9B9",
"H  c #B9B9B9",
"J  c #87C1BB",
"K  c #91E6DE",
"L  c #8FEFE6",
"P  c #94E9E2",
"I  c #9AEFE7",
"U  c #8EF0E7",
"Y  c #83F4EA",
"T  c #8FF1E8",
"R  c #93F4EB",
"E  c #9DF3EB",
"W  c #80FFF4",
"Q  c #8CFFF5",
"!  c #91FFF7",
"~  c #9EFFF7",
"^  c #91FFF8",
"/  c #9EFFF8",
"(  c #A0F5EE",
")  c #A2FFF7",
"_  c #D5F0ED",
"`  c #D8F4F1",
"'  c #D5FFFB",
"]  c #D8FFFB",
"[  c #E6E6E6",
"{  c #E3EFEE",
"}  c #E9E9E9",
"|  c #E7F3F2",
" . c #EAF5F4",
".. c #E2FFFD",
"X. c #F4F4F4",
"o. c #F4FFFF",
"O. c white",
/* pixels */
"d d a t X X X X X X X X X X o u u a N C C V V M .   X N C V d d d d d d d d d d d d d d a d d d ",
"d d a t X X X X X X X X X X + u u u V C C V V M .   . N C V d d d d d d d d d d d d d d d d d d ",
"d d a t t X + t t t t t + t t u u a N C C N N M X . . N C V l d d d d d d a d d d d d d d d d d ",
"d d d a a d N N N N V N N V N V V V k d d d d d a a s V C C V C V C C N t o + a d d d d d d d d ",
"d d d d d d V F F F F C C C C F C V d d d d d d d d d C F C C C C C C N o X o a a d d d d d d d ",
"d d d s a d N V C V V V S S S V V V d d d d d d d d k B N V V V C V V B i # y k l l d d d d d d ",
"d d d t o t d k d d d x P R P z d d d d d d d d C V M t t t d d d d d x K U U R T P l d d d d d ",
"d d s o X o s d d d d z R ^ R l d d d d d d d d C C V t X o a d d d d l R ^ ! ^ ^ R l d d d d a ",
"d d a t t t d d d d d l K R P k a d d d d k z z n n b t t t a a a a a k P U U U L K k a d d d d ",
"d d d N N N d d d d d d l l k t o t a s z P R Y 7 4 > g a a t o o o o + p p p y # y + o + a d d ",
"d d d V F V d d d d d d d d d X X o a d z R Q r 3 2 4 h d d o X X X X X o t o o X X X X o a d d ",
"d d d V V V M d d d a a a a a t X o a a k K L w = & * f s a t + t t + t t u t t t o t t t a a a ",
"d d d F F C V V N t X o + t X X X X X o o # # # O O O + o t M N V N V N N V N N N N N N M t o o ",
"d d d V A C C C N t X X X X X X X X X X X X X X X X X X X t V C C C C C C F C A C A F C V t X X ",
"d a d N N V V C B t t t X X t t u u # # # o o o o o X X X t C G H D D D C V C C V C V N N t o + ",
"o + X t t t d d d d a a s d M [ | { I U P k s a s a a o X u } X. .( R P x d d d d d t t t a a a ",
"X X X X X X a d d d s d s d N X.O.o.) ! R l d d d d d o X u X.O.o.) ! R k d d d d d + X o d d d ",
"t t t t t t d d d N N N l l Z ` ..' Q r Y c h h d d d t X u _ ..] ) ~ E M d d d d d t + t a a a ",
"B N N N N B d d M [ X.| ( R Y 0 6 6 5 5 5 ; ; > n C N d a h 1 6 q ] o. .G V V V V V V N M t o o ",
"A C F F F V d d N X.O.o.~ ! r 5 2 2 2 2 2 2 2 ; m C V d d j - 2 6 ..O.X.G C C C C C C F B t X X ",
"V C V C V B d d N [ X.| ( R Y < ; ; ; ; ; ; = > n V N d s g > - 8 ` X.} G C V F V V C C N t o o ",
"d d d d d d d d d M B M x x l h h g h h h g h h d d d t o t g j j N N N d k d d d d d d d d a a ",
"d d d d d d d d d d d d d d d d d d d s d d d d d d a X X t a d d d d d d d d d d d d d d d d d ",
"d d d N N M l l k d a a d d d d d d d d d d d d N B M y # y d d d d d d d d d d d l d d d d d M ",
"d s N [ X.| E R K # o t N V N d d s d d d d d N [ X.| E L P A V V V C V V C V V V V V V V V V V ",
"d d N X.O.o./ Q L # X t N A C d d d d d d d a N X.O.o.) Q R S C C C C V V F C F C C A V C V A C ",
"d d M [ X.| E R K y o t N C V d d d d d d l l Z ` ..' Q r Y m m m V V C V V C C V V C C C C C V ",
"d d d M N N z l l d s s d d d d d d d d l K R Y 0 6 6 5 3 5 4 4 , j d d d k d d d d C C C d d d ",
"s d d d d d a d d d d d d d d d d d d d l R ! r 5 2 2 2 2 2 2 2 4 h d d d d d d d M V C V d d d ",
"d d d d d d d d d d d d h h j d d d d d l P R Y = & & ; ; ; ; ; , j d d d d d d d d V V V d d d ",
"d d d d d d V V V d d h > ; > n V V V V V z l k @ O @ g h j n m n V V V C C V d d d d d d d d d ",
"d d d d d d V A C d s h ; 2 4 m F F V F V d d a o X o s d d C F C C C C C C V d d d d d d d d d ",
"s a s d d d V C V d d g > - > n C V V F V d d d t t t d d M N F C D D S m m n k d d d d d d s s ",
"o o t d d d d d d d d d h h h k d d d d d d d d B N V V V N d d x P R Y 7 4 , n C C V A V t o o ",
"X X o a d d d d d d d d d d d d d d d d d d d d V C C C C V d d l R ^ W 5 2 ; m C F C F N t X X ",
"o o t a s a a s a d a a s s s s a a a a d a a d A S D G H G z l n Y W e 5 2 4 J Z n N N N t o X ",
"a a a t o o o + + X o X o o o o t + t X o o o y K R E  .X. .E R Y 9 5 5 2 2 2 ; ; : @ t t a a a ",
"d d d + X X X X X X X X X X X X X X X X X X X # T ^ ~ o.O.o.) ! W 5 2 2 2 2 2 2 2 - O X t d d d ",
"d d a t + t t t t u u u y # # t t t t + t o o y K R E ' ..' Q W e < ; ; ; ; ; ; ; : $ t t d d d ",
"d d d N B N N N F [ X.{ I U K Z N N N N N d a d l l v 8 6 6 5 5 < % g h h h h g h j B N V V V V ",
"d d d V C C A C H X.O.o./ ^ R D C F F F V d d d d d g ; 2 2 2 2 ; j d d d d s d d d V C F C F C ",
"d d d V V V V B G } X.| E T P A V C V V V d d d d d h > ; ; 4 4 , j d d d d d d d d V C V V V V ",
"d d d d d d d d d N N N l z z d d d k d d d d d d d d h h j n m n C V N d d d d d d d d M d d d ",
"d d d d d d d d d d d d d d d d d d d d d d d d d d d d d d V F C C C V d d d d d d d d d d d d ",
"d d d d d d d d d d d d d d d d d d d d d d d d d d d d d d N C V C V V d d d d d d d d d d d d ",
"d d d d d d d d d d d a d d d d d d V C F V F N d d d s d d d d d d d d d a d d d a d d d d d d ",
"d d d d d d d d d d d d d d d d d d V C F F C V d d d d a d d d d d d d d d d d d d d d d d d a ",
"d d d d d a d d d d d d d d d d d d V C C C C V d d d d d d d d d d d d d d d d d d d d d d d d "
};
