/* XPM */
static char *_4cac186d15047e69e542e6e8a88bd6fr32981bsuSMzlWoh[] = {
/* columns rows colors chars-per-pixel */
"48 48 186 2 ",
"   c #392916",
".  c #362619",
"X  c #372A1D",
"o  c #3C2D1D",
"O  c #3E3121",
"+  c #45341E",
"@  c #4D371F",
"#  c #4C391D",
"$  c #523716",
"%  c #563A16",
"&  c #593B16",
"*  c #52371B",
"=  c #553B1C",
"-  c #593C1C",
";  c #443525",
":  c #493721",
">  c #473825",
",  c #4C3A24",
"<  c #463728",
"1  c #463929",
"2  c #4C3C2C",
"3  c #563722",
"4  c #533C23",
"5  c #5A3E21",
"6  c #523E2A",
"7  c #4E3F31",
"8  c #603E24",
"9  c #57401E",
"0  c #5D421C",
"q  c #61441D",
"w  c #4F402D",
"e  c #554224",
"r  c #5C4323",
"t  c #54422C",
"y  c #5B452B",
"u  c #5D4A2B",
"i  c #4E4232",
"p  c #544433",
"a  c #594632",
"s  c #564934",
"d  c #5D4B34",
"f  c #564739",
"g  c #5C4C3A",
"h  c #5F503A",
"j  c #624523",
"k  c #684724",
"l  c #654B24",
"z  c #694C25",
"x  c #62462A",
"c  c #654B2B",
"v  c #6A4D2B",
"b  c #724F2C",
"n  c #6C5127",
"m  c #66512C",
"M  c #6D522C",
"N  c #705027",
"B  c #72542D",
"V  c #755A2E",
"C  c #78582F",
"Z  c #644734",
"A  c #634D32",
"S  c #6A4E32",
"D  c #624D3A",
"F  c #6A4F3E",
"G  c #655234",
"H  c #6C5333",
"J  c #6D5832",
"K  c #64533C",
"L  c #6B543A",
"P  c #6D593B",
"I  c #735533",
"U  c #785635",
"Y  c #715830",
"T  c #725931",
"R  c #735A31",
"E  c #755931",
"W  c #765B30",
"Q  c #745833",
"!  c #745B32",
"~  c #775A32",
"^  c #775C31",
"/  c #755C33",
"(  c #735934",
")  c #705A35",
"_  c #735936",
"`  c #715937",
"'  c #765834",
"]  c #755836",
"[  c #745A37",
"{  c #725C37",
"}  c #745C36",
"|  c #755934",
" . c #785D32",
".. c #795B35",
"X. c #7B5E36",
"o. c #7A5C35",
"O. c #715339",
"+. c #735638",
"@. c #745539",
"#. c #75573D",
"$. c #73563A",
"%. c #79553B",
"&. c #78543C",
"*. c #78563D",
"=. c #735938",
"-. c #70593A",
";. c #74593B",
":. c #775A3A",
">. c #705C39",
",. c #755F3A",
"<. c #765E3A",
"1. c #705B3C",
"2. c #71593D",
"3. c #77583C",
"4. c #755A3D",
"5. c #775C3F",
"6. c #755A3B",
"7. c #785A38",
"8. c #78593A",
"9. c #7C5B3A",
"0. c #7B5D39",
"q. c #795C3A",
"w. c #7E5D3A",
"e. c #7A583D",
"r. c #785B3D",
"t. c #78583F",
"y. c #7A583F",
"u. c #795B3F",
"i. c #795C3C",
"p. c #795C3E",
"a. c #7A5D3D",
"s. c #7C5F3F",
"d. c #7B5D3A",
"f. c #7B6135",
"g. c #77603E",
"h. c #76623D",
"j. c #78603E",
"k. c #7F613D",
"l. c #7D613C",
"z. c #665541",
"x. c #6A5542",
"c. c #665843",
"v. c #6C5A44",
"b. c #665B49",
"n. c #6C5D4C",
"m. c #735D43",
"M. c #7D5B40",
"N. c #785D40",
"B. c #7B5C40",
"V. c #7B5E40",
"C. c #785D42",
"Z. c #7E5F43",
"A. c #7C5E44",
"S. c #7A5E41",
"D. c #715D4E",
"F. c #795F4A",
"G. c #6D5D50",
"H. c #715F51",
"J. c #6F634D",
"K. c #746244",
"L. c #796041",
"P. c #796242",
"I. c #7D6040",
"U. c #7D6042",
"Y. c #7F6145",
"T. c #7C6242",
"R. c #73624D",
"E. c #7E6348",
"W. c #7B644A",
"Q. c #7D6A4C",
"!. c #6E6252",
"~. c #736353",
"^. c #786556",
"/. c #756857",
"(. c #75675A",
"). c #766959",
"_. c #7A6C5B",
"`. c #7B6D60",
"'. c #7D7161",
"]. c #805F3C",
"[. c #816237",
"{. c #81623D",
"}. c #836441",
"|. c #846841",
" X c #836B4B",
".X c #816F63",
/* pixels */
"r e u J j.} M M M q m u r e u P >.u.Z.W.C.L G L r 5 x @.M.&.&.*.*.p.u.T.x r j O.u.+.H H H S v Z ",
"r e u J h.! Y M M l n l r r r P p.C.A.}.P.H H S y r x @.M.*.*.y.7.T.p.k.k j j [ 7.I S I v v v v ",
"r e u M =.Y M V B k v l r r r J 4.7.7.7.} M M m r 0 j E 9.U U U U k.d.d.0 k k B E E U I M z l z ",
"r r l m I B Y ..E z v k l 0 r J B N v B M M M J j 0 q v U C b b N X.~ ! - q q v b B E E B z z z ",
"r r j v I H U 9.U k v c j r r H v z l l n m n n 0 0 0 z b b b b n ^ ^ ^ 0 0 0 n v B !  .B n l n ",
"5 5 5 S I I I ..I k S v r 5 5 H [ M n q z M J m 0 0 0 v E E B B m f.T ! 0 0 0 J M B T ! V M l l ",
"4 4 y L C.4.O.H O.c S c 5 4 5 m.P.P m u m G J m r 9 r H P.p.=.=.J J m J 9 0 r ,.h.{ J J H m c m ",
": * y m.W.m.L S L A D x 4 : t m.W.K.G s u K K G # # y P W.W.m.m.1.L G G 9 # e K.Q.K.P G G u u G ",
"4 6 y x.v.x.v.K z.a K t t : 6 L J.c.c.s K g K g w w t D.R.~.z.x.z.b.z.z.2 > 7 z.n.c.n.h K s g g ",
"p 6 2 a s d R.~.R.2 1 + a s p a 2 s !.!.n.2 < < p w p ~.(.R.f p p b.!.!.p p 7 f i s n.!.G.2 ; ; ",
"y t 2 2 > w J._.~.>     s d t , O i !.'.(.O . o s p f (.(.G.i ; 2 G.`.~.s f i 1 ; 7 G.`.(.< X X ",
"t t 6 y 2 t n.~.c.6 > : t t 4 t i i b.~.~.1 ; 2 p 2 p ~.~.G.p p f G.(.n.i g p 7 7 p n.~.G.2 < 2 ",
"4 4 4 A d y K h K g K A 6 4 4 A h s h K v.a a Z 4 6 6 K K z.a g g v.z.F 6 6 6 d g D x.D x.a D d ",
"= - = c A d K y A G P G = = * c u u P G L c S c 5 * * c x c r A S S Z L 3 3 3 Z A D L A L A S y ",
"& % % c c c H c G H 2.H = - $ z m m J m M l k k - & & M M M l c v B I Y = $ & v I v I k B c v j ",
"& & - v v c +.H H <.T.7.& - - ~ h.n n q B k b k & & & ..d.k.N B v o...! & & q E s.B v v M q k M ",
"* = = v v v I v Y k.k.=.& $ r j.{.f.n l k n c l = $ - d.X.s.B v B d.}.d.- & - p.T.d.v j v z k n ",
"= = 5 c x k E v M p.k.d.5 = e ` f.V M n v M v l = $ - p.d.{.U B B ! l.[ & = - u.T.u.S l v M l z ",
"4 = - c v x U v v s.k.p.5 * = H N N N B B M c c = $ - p.d.Z.E B B B [ M * = - @.T.y.I v M v k z ",
"= 4 5 c v k E v b d.k.d.5 * = c k z ! ..[ M c c = $ - d.7.].U E E B M n & - - #.T.s.S v m n l z ",
"= = - c c x U I B d.7.7.5 * * c z z ~ d.~ v c c = $ - u.7.{.U ....N v v & 5 - u.Z.p.I v M v l n ",
"= 4 = c v k ..Y E d.=.I = * = c N N ~ ]...v c v - $ - 7.7.s.U ..~ v z v = - - #.7.u.O.v B v l l ",
"= * - c v v 7.I E d.7.I = = 5 v b B X.{...M c c = $ - u.I s.U ..! z l v = & - @.@.u.I v H v k n ",
"= = = c v v d...I d.I I 5 - e m N B X.{.k.M l c = $ - 7.I 7.I ....z k v * - - =.+.=.H v b v k l ",
"* = - c v v [ E ' v ..v = * = c N q X.d.k.M I m = $ - @.s.U {.d.l.z n l - = 5 @.u.+.u.Y =.z n z ",
"= # = c v v %.E ' b E v - * 4 c z z d.f.l.M L c = % - I 7.I {.d...k v l & $ - H u.+.7.I 7.v z l ",
"= 4 - c v v 7...o.v S v 5 5 5 c z z ..l.l.M I H 9 9 0 Y I U ].d.X.z M k - & 5 O.@.I u.I [ l n z ",
"r e e v v v d.d.d.v v v 5 r r c N q d...k.B 4.I r 9 j O.I I ].].X.v M v 5 5 j O.+.H 7.I [ l z l ",
"y r r S c v {.k.d.k M c r r r c N N o.].k.Y <.=.r r j O.I B ].s.f.M E M j r j S H H 7.I ..l v l ",
"r r 5 c x k d.s.{.z B v y j r x z q o.].l.B =.H j j 5 v v v ].d...M E M j 5 8 S S S d.%.=.z z k ",
"5 r r c c k d.{.].v v v j 5 r c N q o.X.d.M J c r r r v v v ].].d.B ..M j 5 5 v v S p.7.f.c l k ",
"r y j v v z X.l.d.v I v j x j v z z X.X.} l v q r j 0 v k k ].{.l.B d.B k j j v c v s.d.l.z n k ",
"8 8 8 v c z f.f.^ n J n r 8 j S l l { f.h.n l m 0 0 0 0 v B ~ ..~ C C  .0 q q q N n ..l.l.l l l ",
"3 5 * k l n f.f.f.! l.f.j = 3 v m l J m J l m l 0 9 0 0 l v ..}.{.X.! ..0 % % q l l J n B l m l ",
"3 3 * x c m j.h.P.h. XK.x * 3 x G A H u h m G u # = 9 r x S x. XE.m.p.j.e # = u c m H u G G K m ",
"4 3 6 S A A K.m.K.G K.G 6 4 4 Z a h v.K P s h s t w e d F F x.m.L W.W.W.e , e y a d c.K v.a d s ",
"4 4 , y w t n.^.R.6 @ , 4 y 4 6 2 p n.(.n.2 < < w 2 p b.^.D.D 7 s D._.R., 6 w w w i J./.J.2 O 1 ",
", , + , + w D._.H.;   o : 6 , : 1 i G.).H.; X + 2 > f H..XH.7 + w n.).~.1 2 1 > 1 i b._.!.; X O ",
"4 4 , t a g G.H.H.2 > , , e @ e t p D.(.H.7 1 2 2 1 p n.^.b.f 7 g v.!.J.t 2 2 t 2 i !.).!.i 1 1 ",
"e r u P m.v.D.z.D.7 d g y e e d a D R.R.~.F x.z.s 6 t D z.F x.D.m.v.P J.a t t g s h J.J.J.s g s ",
"0 e r m.F.F.F x.x.Z F Z j r - m c L m.W.W.m.m.#.x e y A d G m.W.m.K.P J r r e G u m 1.W.K.K h m ",
"0 0 r N.A.A.F &.M.Z Z Z x 5 9 M v O.+.<.C.4.4.7.u - u m v M =.j.,.f.` ! r r 9 n m G P >.P G m u ",
"q 0 q 7.y.}.U @.&.x S k l 0 q B E B B B ! o.d.X.j & q V J T [ ..^ l.f.f.q 0 q B ^ T Y V n m l m ",
"q 0 q 9.s.].' 9.U k v k j j q B ..B b b B o.].X.q & k ! } ....! V [.f.f.q q q B ..T M M n l l l ",
"r 0 0 d.d.{.~ o.~ z z l j 0 r ` I U b B E o.d...l - q V ` ! [ B V ].X.].q q q C ..Y B B n n l z ",
"r r 0 } f.l.! X.~ l z l 0 l r ` I I U I %.=.7.[ j - r m J J Y H B ..o.C q - q b I M I I J M c m ",
"y r r h.f.l.V ^ C z z l r r r L S O.@.#.u.=.#.#.j e r H H G H H S ..U ..8 5 8 v S O.@.<.+.S c c ",
"t e r <.f.f.V ^  .q l l u r r L S O.N.N.4.#.4.2.x 4 c L L H L H O.7.@.*.j j j I S O.4.m.#.S A S "
};
