/* XPM */
static char *_801101b83284f96fda69fc0d3593339bxRD627W8tU12TwW[] = {
/* columns rows colors chars-per-pixel */
"48 48 163 2 ",
"   c #5E4E2B",
".  c #5E4F32",
"X  c #664D26",
"o  c #684F27",
"O  c #644D2C",
"+  c #684E2B",
"@  c #6E5326",
"#  c #64512C",
"$  c #6C542C",
"%  c #6F582E",
"&  c #71552D",
"*  c #72592D",
"=  c #645231",
"-  c #6D5630",
";  c #6F5931",
":  c #715632",
">  c #745B33",
",  c #7B5E33",
"<  c #765E3B",
"1  c #7A5F39",
"2  c #7B642E",
"3  c #7D6235",
"4  c #776139",
"5  c #7C623A",
"6  c #7F683C",
"7  c #805F32",
"8  c #836435",
"9  c #83653A",
"0  c #84683B",
"q  c #8B6A3B",
"w  c #946F3C",
"e  c #96723E",
"r  c #99743E",
"t  c #856941",
"y  c #946F43",
"u  c #957342",
"i  c #997542",
"p  c #9C7844",
"a  c #967548",
"s  c #9B7749",
"d  c #9C7B48",
"f  c #A27D46",
"g  c #A87F47",
"h  c #A37E4A",
"j  c #A68246",
"k  c #AA8245",
"l  c #A6824C",
"z  c #A9844D",
"x  c #AE894E",
"c  c #B1874D",
"v  c #B38C4D",
"b  c #B88E4E",
"n  c #B7904F",
"m  c #B9914E",
"M  c #A68452",
"N  c #AA8551",
"B  c #AD8952",
"V  c #AA8559",
"C  c #AF8D5B",
"Z  c #B48D52",
"A  c #B98E52",
"S  c #B38E5B",
"D  c #AF915C",
"F  c #B59054",
"G  c #B99254",
"H  c #B5935D",
"J  c #B9945D",
"K  c #BA995E",
"L  c #AF8F60",
"P  c #B69560",
"I  c #B79660",
"U  c #B69761",
"Y  c #B69562",
"T  c #B69665",
"R  c #B79766",
"E  c #B59461",
"W  c #B89460",
"Q  c #B99561",
"!  c #B99460",
"~  c #BA9560",
"^  c #BA9561",
"/  c #B99660",
"(  c #B89761",
")  c #BA9761",
"_  c #BB9661",
"`  c #B89462",
"'  c #BA9662",
"]  c #BB9662",
"[  c #BB9763",
"{  c #BC9762",
"}  c #BC9763",
"|  c #BB9765",
" . c #BD9564",
".. c #BC9665",
"X. c #BA9561",
"o. c #B79862",
"O. c #B69863",
"+. c #BB9862",
"@. c #BD9861",
"#. c #BC9961",
"$. c #BC9963",
"%. c #B99966",
"&. c #BA9966",
"*. c #BD9965",
"=. c #BC9866",
"-. c #BF9B67",
";. c #BD9C66",
":. c #BC9A64",
">. c #B69768",
",. c #B59969",
"<. c #B79B69",
"1. c #B7986A",
"2. c #B99968",
"3. c #B99B69",
"4. c #BE9D68",
"5. c #BF9E68",
"6. c #BF9E69",
"7. c #BC9C6B",
"8. c #BD9D6C",
"9. c #BF9F6C",
"0. c #BE9E6D",
"q. c #BD9D6E",
"w. c #BF9F6E",
"e. c #BD9C69",
"r. c #BEA169",
"t. c #BEA06A",
"y. c #BFA16B",
"u. c #BFA26A",
"i. c #BFA06A",
"p. c #C09864",
"a. c #C39B67",
"s. c #C09D65",
"d. c #C19E64",
"f. c #C29F65",
"g. c #C19E66",
"h. c #C29F67",
"j. c #C19C65",
"k. c #C09C68",
"l. c #C19D69",
"z. c #C19E68",
"x. c #C09F69",
"c. c #C29F69",
"v. c #C19D6B",
"b. c #C09F6A",
"n. c #C29E6A",
"m. c #C29E6C",
"M. c #C09E6E",
"N. c #C19E6A",
"B. c #C1A168",
"V. c #C1A06A",
"C. c #C0A16A",
"Z. c #C1A06B",
"A. c #C0A06D",
"S. c #C1A06D",
"D. c #C2A16C",
"F. c #C0A26C",
"G. c #C3A26D",
"H. c #C1A16E",
"J. c #C0A06F",
"K. c #C4A36E",
"L. c #C2A16C",
"P. c #C4A370",
"I. c #CBA372",
/* pixels */
"v b b b b Z H Y o.o.H H :.Y ! v.J.8.8.G.y.9.-.B.) J ) ;.m.G.8.8.g.) H ` J ! ) ) H o.#.Y ! u u u ",
"Z v v v v Z H ) H o.H #.) H ) k.n.9.9.9.n.9.-.r.) H  .k.L.9.n.G.;.#.J J ) H H J H H H H J i u i ",
"Z Z Z Z F F G J G H F  .S H ) m.-.B.g.g.g.n.n.v.) ) 2.v.n.g.-.g.K K H J #.H H o.K @.H ) H i e e ",
"G J J J J G F n G G Z S i i p h z N Z v Z H ` ` H H ! ..#.J F F F v b F H H H Y J H l l z f l N ",
") J ) ) J G F v v v v Z e e i M h z x v Z J ) ..J Y ! ) ) J Z v b v Z F J ! ) ) H H z z M z l l ",
") H ` ) J H Z Z Z G Z B p i p l z x Z Z F F G H J J G G G J H A Z Z Z F F J J J J K N z z l z z ",
"H ) H H H J J J S J H J S H H J H H J J G A S Z Z Z Z Z Z F J p.L.-.-.-.m.n.L.9.9.-.-.@.Y p e e ",
") ) o.K #.J  . .J  .) J @.K J J ) ) )  .J A b b Z A Z b b G a.I.u.u.u.y.y.L.y.L.L.9.G.K.n.i e p ",
"H J J J S ) S E L H ! S J J S ` S H S C S x v c v v x v x S J #.,.8.3.8.:.3.,.,.3.T 8.T E a y y ",
"i i i i u u 9 8 9 u i y u f y 8 9 5 % $ % $ $ % 8 9 8 8 3 3 > ; % 9 9 5 & % : - % $ > ; > @ # $ ",
"s y w i u u 3 , 7 u i u u i y 8 , 1 + + O . . = < 4 4 4 5 < #   X 5 6 1 o O + O O O O O #   + O ",
"i i i i i i 8 8 8 s i i i u u 9 9 8 & $ % o o $ 3 0 8 8 0 3 * % : 5 9 9 : & & % $ % $ $ $ - $ & ",
"H ! H :.;.) M M V 2.9.k.k.:.m.2...) -.3.3.p e e S ) H S H S S S S L C H M x x z M B h h h B B B ",
" .J ) n.G.9.N d h ;.L.L.n.m.P.k.P.9.G.9.3.i e r E Y J Y #.:. .:. .j.! J F v v m A A c k g v A A ",
"J H ! -.9.;.N z S @.L.n.;.j.k.j.j.;.y.3.3.d i a H H J J J H H F F J H H F v b Z v v k z l v v A ",
" .J ! ! H ) S ) A S A B B z z S A Z x l l e u u j l z Z v v F v F K H U H #. .S J H H ` T Y ! J ",
"J J H J K H H H J F v F x h g b Z Z g j l e i e h h j x n v v b Z G H H o.Y J ! J ) H H Y H #.H ",
"! ! ) ! Y ) ) ! J A b F N V N Z v Z z z z e a i N M x F F F Z b J H J H Y J  .H H ) ) Y ) H ) H ",
"! ! J J H G A A A G J J S ! H H K  .J J S e e u S H H H G J H G G A Z A Z A Z N z M H H ) J ) ) ",
"J J K K K G n b v J K K H ) K K J S ) ) H i i i Y ) J J K K o.#.J b A m v b v k z N ! J ) ) H Y ",
"H D D D C S Z B S S S C H D H H ` L ` L S a u u S H J H H H H H H B x v x x x M h h H H H H S T ",
"- : - - & > 3 8 9 > & : 9 5 9 9 8 8 8 8 q , 8 8 i p p p i i p p a 8 9 8 8 0 9 y i i p i i 8 8 8 ",
"O O O O O $ > 5 > + O + 4 3 5 5 8 , 8 , 3 , , 5 e e e e e e e e u 7 5 3 > 5 8 u y w e u u 3 , 3 ",
"$ % - - $ * 3 9 3 % - % 3 2 8 8 5 9 t 5 9 t 9 t i r e i p r i i r 8 3 5 6 8 3 i p a i p a 8 9 5 ",
"x c c g h h l h g c Z v v v v x v v p.9.>.-.@.;.H H H H H H H Y H H D S H D H D H H H H S i w u ",
"A Z Z z h M N z z Z Z v v v Z Z v Z g.L.G.K.L.B.H K H H H J Y H J K ) ) J H ) #.) K #.:.H p u i ",
"Z Z v z z M z z B Z F F b b Z A A A p.f.;.g.-.3.#.` H !  .J J K H H H H H H K J H H H H S p e e ",
"J J J H H H H H H J J J H J J J H S G Z c x M l M l z Z Z v v A Z z j z v F B l l z z z l e e e ",
"H H J H H H Y J H ) Y H K H #.H K K A v v k h l l l z v b b v b F z f l B A Z z l l z l l r p p ",
" . .) ) J ) ) #.#.H Y ) Y o.Y o.H J F A Z z l l l z z v Z b v v x z l z B Z x M M l l l l r e e ",
"-.n.-.Y H ) ;.-.-.y.r.-.L.9.-.-.-.L.3.L.L.) H J H H J J J J H K J J ! J J K J ! ! H H H H z l h ",
"m.P.G.) J @.n.K.L.y.r.y.L.L.L.y.r.G.9.t.m.Y ! J ) J ) H H ) ) ) J ) Y H K J ) ! ) J ) #. .N l M ",
"3.7.-.S C `  .9.Y 3. .o.3.#.o.9.@.-.o.:.3.H H A E L S ! H H H H H J J H H H S H A H S S S z d l ",
"- $ - $ $ $ % $ : : : : % % & 5 9 9 % % - 5 9 9 3 8 8 u i d i p u u i u 8 8 3 8 8 5 * $ % $ $ % ",
"# O . O $ # # O O O   . O O = 1 5 5   X O < 5 5 3 3 8 u u u q u r y i a 3 5 5 5 6 4 #   =     # ",
"$ $ $ @ $ @ $ $ % $ $ % $ & * 5 2 , @ % * 3 5 8 3 3 5 u u p e i f w u u 8 8 3 5 8 3 & @ % $ % $ ",
"S S S h h M C H H C D D C D H H ) S S H C r y u 8.8.3.n.;. .A Z x u u f z Z Z H H H C H H D E C ",
"! ;.) l d M H #.H ) J ) J @. .H  .H ..p.) i u s ;.n.n.K.a.d.G x Z i w w v v A G J ) Y o.Y E o.H ",
"H H H z N N H J ) ! H ) ` J J H J H J J S r y i 9.k.k.m.g.j.A Z x f i s v n F S ! ` H H H H #.H ",
"Z A b v Z Z J J H H H H N l z M l B x F x p e u z M M ` J ) H J J Z `  .A H H V k z l l k v F b ",
"v b v v v F J J J Y J H N l z h h z c b v r w i h N h J ) H H Y ) T  .Y ;.H ` l z f z z g v v v ",
"Z Z b Z Z A H J K H H H z z h g B B v Z v r y i g B M H ) ) #.#.` #.#.J ) H Y B M h V h l Z S F ",
"J J H K H ) J ) J J #.@.J ! .. .S H J J J z l B -.k.;.n.n.@.H H H J J H H H J H ..! ! ! S ) J J ",
"J J H K K H J H J J Y J ` H ! ! ) ! ` ! H z l h 8.m.m.G.P.9.:.H J J J J )  ...H J H ) )  .K J J ",
"D D D D S D H H D H C C H E S L H S T ` S N l l :.3.9.O.3.3.Y H H H E E L L C E H S S C H H H D ",
"% $ $ $ & & $ $ @ @ @ & , 8 8 9 9 8 u u p u i e i p i 8 8 9 8 8 8 8 9 5 & & > 3 9 8 & & & $ $ $ ",
"+ + + O # = + # + O o $ 1 1 3 , , 8 u u u r i i e e y 3 , 3 3 5 3 1 9 1 X X o 4 1 1 # + # O + O ",
"# $ # # # # # # = # # # 5 5 9 5 5 3 a u e e e i e e a 3 5 5 1 3 3 5 5 5 $ $ # 5 5 3 @ # - # # # "
};
