/* XPM */
static char *_004e059001544448665d38078f4d697lhbolhfBZB7t4Yqa[] = {
/* columns rows colors chars-per-pixel */
"48 48 152 2 ",
"   c #512606",
".  c #542C0D",
"X  c #5A2F0F",
"o  c #55310F",
"O  c #5D330E",
"+  c #573212",
"@  c #5B3413",
"#  c #5E3816",
"$  c #5E3919",
"%  c #60340F",
"&  c #613613",
"*  c #643B15",
"=  c #643C1A",
"-  c #693E1B",
";  c #674117",
":  c #6A4216",
">  c #66401D",
",  c #6B421D",
"<  c #6F481D",
"1  c #71451F",
"2  c #724A1E",
"3  c #654121",
"4  c #6D4423",
"5  c #6E4923",
"6  c #6E4A28",
"7  c #714623",
"8  c #744B25",
"9  c #7B4E25",
"0  c #754D2A",
"q  c #7A4E2A",
"w  c #775026",
"e  c #7C5126",
"r  c #76502B",
"t  c #7C532C",
"y  c #7F582E",
"u  c #765230",
"i  c #7D5531",
"p  c #7F5832",
"a  c #7F5B39",
"s  c #804F26",
"d  c #805127",
"f  c #82552C",
"g  c #88572E",
"h  c #80592E",
"j  c #83582E",
"k  c #84592E",
"l  c #85582F",
"z  c #84592F",
"x  c #855A2F",
"c  c #84592E",
"v  c #88592F",
"b  c #805630",
"n  c #815731",
"m  c #825631",
"M  c #805532",
"N  c #805533",
"B  c #815633",
"V  c #825633",
"C  c #845730",
"Z  c #815634",
"A  c #825734",
"S  c #825735",
"D  c #825631",
"F  c #805930",
"G  c #835931",
"H  c #815A31",
"J  c #805932",
"K  c #825832",
"L  c #835933",
"P  c #815A33",
"I  c #855831",
"U  c #865930",
"Y  c #855A30",
"T  c #875A31",
"R  c #865932",
"E  c #845A32",
"W  c #855B33",
"Q  c #865A33",
"!  c #835C33",
"~  c #805835",
"^  c #835835",
"/  c #835836",
"(  c #825A37",
")  c #855934",
"_  c #845835",
"`  c #845A34",
"'  c #855B35",
"]  c #875B34",
"[  c #865A35",
"{  c #845936",
"}  c #855936",
"|  c #855A37",
" . c #875B36",
".. c #865A37",
"X. c #845D34",
"o. c #865C34",
"O. c #875D35",
"+. c #865C36",
"@. c #865F36",
"#. c #845A34",
"$. c #885B32",
"%. c #895C33",
"&. c #885B34",
"*. c #885C35",
"=. c #8A5D36",
"-. c #885E36",
";. c #8B5E37",
":. c #895C34",
">. c #865B38",
",. c #875B38",
"<. c #855D3A",
"1. c #865E3B",
"2. c #845C39",
"3. c #885E38",
"4. c #895F39",
"5. c #8B5F3A",
"6. c #895E3A",
"7. c #905F36",
"8. c #876036",
"9. c #8A6236",
"0. c #86603C",
"q. c #886138",
"w. c #8A6038",
"e. c #8B6139",
"r. c #896239",
"t. c #8A603A",
"y. c #8A633A",
"u. c #8D6039",
"i. c #8C603B",
"p. c #8E613A",
"a. c #88603D",
"s. c #89613E",
"d. c #8A623F",
"f. c #8D613C",
"g. c #8C623C",
"h. c #8D633D",
"j. c #8F633E",
"k. c #8C653C",
"l. c #8E643E",
"z. c #8E673E",
"x. c #8C633B",
"c. c #906137",
"v. c #90643F",
"b. c #91653D",
"n. c #93693F",
"m. c #8E6340",
"M. c #916540",
"N. c #926641",
"B. c #936742",
"V. c #916642",
"C. c #956944",
"Z. c #926B42",
/* pixels */
"* < w w 5 % b t % 7 5.s V V q 8 8 @ a.i p < w w p > @ 0 q 7 d 9 y t j., O b _ t q 0 t 0 - s q = ",
"2 w y w 8 ; ^ i & q M.m ,.g d M i X i A r.w w w A , & 0 N 0 d d y y j.< O b I t q q i 0 - q N = ",
"t y y r 9 7 >.A - 9 N._ 7._ g 7.i + i ^ y.2 8 t >.4 & q A 9 f t I f j., & b ^ t q q M 8 4 N N - ",
"e e y y w q _ i * 7 M.,.7.V m B.6 + <.p p : w p >.4 * q / t I d _ t j.< & f F r i i V q 4 N N - ",
"2 w p F r b b i * 8 M._ 5.f R C.3 @ a.t t 8 y p } - & i / t g e *.f y.4 * I b q i q Z q 7 i N - ",
"2 8 X.+.t 5.M i * 0 M.V &.g $.C.3 $ 1.0 i y ! t / 4 = q _ t k d *.t 5.< * _ F t q i / q 7 q N - ",
"< w y.y.q j.M M * q N.q m g :.v.4 @ 6.q F t y t / 4 = u &.t k d 9.t *., * +.F r M q V q 7 N q = ",
"< w y.y.q 5.t M - 8 M.8 f b &.5.3 X m.i y < r h V 4 * t 5.t I h x.t _ < - +.^ t N M / q 7 u N = ",
"2 y z.t +.F b i & 8 B.7 m d &.M.- # 0.p y w w F } 4 & Z Z _ s _ *.X.f ; 7 _ p 9 ,.q N q 7 N N - ",
": y z.t _ i A i & 8 7.7 / d R 5.5 $ a t y e 8 i } 4 = / / ,.f g %.X.y - < +.^ t N N N N N / q = ",
": y k.e _ f / t * 0 7.7 R f R 5.0 3 p t y t w p } - & / _ *.d m X.I t - : _ _ f q / V s / / 8 - ",
"; y k.r A t >.i * 8 5.- R f R 5.u 3 a t ! h y p } 4 & ,.5.5.d g *.X.t - , _ +.b / ..7 4 u N 7 4 ",
"; y 8.y p w 1.A * 7 ,.1 =.g ,.7.0 = S i 8.8.y F 6.- & ( 5.5.t k y.+.f * - m b M ,./ - = i / 7 = ",
"; y y y 8.8 ,.>.& 7 ,.1 7.V R 5.3 @ Z i 8.I y p 6.= @ A >.&.t k 9.8.b - - b / f ,.N 7 7 / 5.8 & ",
"; y e 8.y.7 5.j.* 7 5.q 7.V g 7.= @ / i F h y ,.6.* X A 5.%.e k +.+.g - : b / m } q q N / 1.q # ",
": y e 8.k.< ,.k.* q N.q m.V f ,.= $ 2.^ b t t 1.1.& X i _ $.t v I I b - > A / V / 9 N V i >.i # ",
"; y y X.9.2 n.8.* q / 6._ f j u.0 + u 1.I e I +.,.4 o p ^ I $.v c.k g = > 2.i ^ F I g k I _ ^ = ",
"; y X.8.9.2 c.x & q / / _ f d u.0 + i 1.m t I _ 2.5 + p 2.! $.v c.k I = ; 2.p ^ m I d v I F p = ",
"; p 8.9.9.9 9.x % q / / b d g *.6 + r >.I f I b 2.5 + p _ $.$.v c.%.*.= > 0.a 2.F f d g I ! i = ",
"> u h 9.9.d 9.h O q >.A M f g x.6 + t _ I f &.t 2., + a >.$.$.v c.;.u.- > a 2.,.m g d g I ^ i = ",
"5 p p 9.8.x x y O q 6./ M d R x.3 + i F b f *.y 2.4 + 2.>.I $.$.c.u.u.> = <.>.1.m g s g k I i $ ",
"r ^ 2.9.x %.h e % s i./ M f f 5.3 @ i ^ i g x.i p 5 # a ( I $.$.v :.b.; = a ( ,.I d 9 g k I i # ",
"8 a 8.y.d 8.d m % q i./ f q d *.3 @ a F t g x.I p 5 # 2.>.R g 7.k %.k.> = a a _ F d 9 d k ^ i # ",
"4 y 8.k.t I f 7.X N 6./ q t d $.- $ a b t d j.+.^ 5 $ ,.>.R g $.d %.b.> $ a i A I d 9 g g ^ i # ",
", 2.8.9.y 9.9.x X s 5.,.s q f / $ 3 i t f f x.,.i 5 # 0.0.y d u.d b.u.= * p ( ,.f g g g f _ r @ ",
"> 2.8.9.y x 9.x X 7 ,.,.s q g R = $ 2.y b d b f i 5 # a 2.t d :.d u.9.= = a ( ( F d d f f >.i $ ",
"> ^ 2.y.k 9.9.9.% 4 ,.6.7 s _ V = $ 1.i t d 7 t i 4 @ p >.f f v d %.*.> = a a i b d d e y _ i = ",
"> F ! k.x d k.x & = ,.6.7 m g g 3 o 1.t f I < y u 4 + p ^ f f v g %.%.> ; p p i f d g d f +.i 3 ",
"< y x z.9.e 9.9.& * 7.,.8 I $.h = + <.0 y %.9 +.t 4 + u ^ b d $.v g I , $ i >.q t d g d h 5.i = ",
"; y y 9.z.2 z.x * * 6.,.q *.d d $ + 2.w d u.f ,.i > o r ^ I g g k g _ 4 $ u 2.i r d g k f +.t = ",
"; p k z.9.2 9.x & - 5.m M 7.d X.@ $ a t I u.5.p r 4 . r ^ &.g g v d *.5 @ w ( t t e g g d _ t = ",
"# p k 9.z.: 9.x & - 5.M m v.t y.@ 3 ( t _ *.x.w t > . r _ &.$.$.$.t *.5 + 6 >.i f g g d t b i - ",
"; w p y.y.> 9.y.# 8 *.t w v x 8.3 $ 1.A t 5.+.w ^ 5 . 7 6.q g X.d d 8., o w a u y d g g d _ b - ",
"< y p z.r.5 y.k.% 8 8.t e k v 8.3 @ ..i y ! 2.w i 8 . 7 5.t I I e d +.4 o u 2.i t d g g d _ i - ",
"< y y z.+.t 0.k.* 7 X.y e h f x 4 + ^ F y y y w M 0 X 7 >.t k e e t 8.4 # u <.p t f g g f / i = ",
"2 a w n.p 0.0.k.* 2 I d e f f x 5 . i ^ y t y y q 0 X 4 b 9 f 9 e e 8.5 @ r 0.^ 9 d g d d V u = ",
"< a w n.y z.a r.* 1 X.h e e e x 4 . u b y y y ! M 0 & 4 V s g 9 d e *.8 # r 2.( s s s g d m q = ",
"< y y z.w z.a 8.* < I x y e e %.4 . u i t y y p M 0 X 4 } q $.R e e 0.5 # 6 ( p q s g s f m q = ",
"< w y a r z.p a - , x X.f y e 9.6 + p y w y p p V 0 % 7 } 9 g :.e e *.8 # 6 a p q f f g s _ N = ",
"; w y a w a p p - , X.x h f e 9.0 @ p t w y p t _ 0 X 7 V 7 d / e e 9.8 @ 5 p p s s g g f } u = ",
"> p 0 ,.0 a.u / - - k.5.d I d y.4 @ i u t r w r M q X 7 y r e j w e t t # ; 2.i q f f g f V / * ",
"> p w >.6 / 0 / * , N.5.y m t *.6 X i i t r w w d 0 . 7 t e e d e w y r $ $ a p d f f R f g ..= ",
": p i / 0 i 0 6.& - C.5.t f e +.4 + u t t e w w i 8   4 q q t j e 9 t t $ ; a i d d s g m ,...= ",
", p u / 8 u 0 ..& - C.1.r f e h 4 + i t e w 8 w i 7   4 f q d t e 9 t r $ 3 2.i d d 9 g g ....= ",
"5 r w i 0 u 0 N @ - V.5.9 f 8 t 4 + 0 t e w 8 t q 7   7 q d f f e 9 e w $ 3 0.w m s s g g _ ,.- ",
"w t i p i u 0 u @ - m._ 9 f 9 q 6 . 0 0 t 8 8 M q 0   7 t 9 t f e e r r = 3 0.8 R s s g V m 6.7 ",
"6 i p p S 0 8 u & - j.b 0 f 8 8 5 . 0 w w w 0 / 7 7 X 7 q 9 w j e e t 8 = 4 5.0 R f s g N q ..7 ",
"> 0 p i i 4 4 0 & - 1.f 8 g 2 7 6 . 0 8 w w q ,.7 4 X 0 q 2 w t e e r 0 = 6 1.7 m d s s 9 0 / 4 "
};
