/* XPM */
static char *_0e8e33dfc504c14cb29ace45dea70dbo6zYIopuXef0cnul[] = {
/* columns rows colors chars-per-pixel */
"48 48 141 2 ",
"   c #6F3B2C",
".  c #713D2E",
"X  c #733E31",
"o  c #754133",
"O  c #7D4435",
"+  c #774638",
"@  c #7D4639",
"#  c #7C4A3C",
"$  c #7F4E40",
"%  c #7E5246",
"&  c #814637",
"*  c #814837",
"=  c #804638",
"-  c #814C3D",
";  c #8D4E3D",
":  c #914F3E",
">  c #83503F",
",  c #8E503F",
"<  c #92513F",
"1  c #824E40",
"2  c #8D4F40",
"3  c #914F41",
"4  c #805145",
"5  c #8E5343",
"6  c #8F5348",
"7  c #955342",
"8  c #9B5644",
"9  c #925947",
"0  c #9C5845",
"q  c #955748",
"w  c #975A48",
"e  c #9A5C4A",
"r  c #A15847",
"t  c #A95E47",
"y  c #AB5E4A",
"u  c #AE614B",
"i  c #B0624C",
"p  c #BD644F",
"a  c #BD6450",
"s  c #876E67",
"d  c #8B6D66",
"f  c #866E69",
"g  c #8B6E69",
"h  c #926C65",
"j  c #936E68",
"k  c #887066",
"l  c #8D716B",
"z  c #947067",
"x  c #967168",
"c  c #9E7D74",
"v  c #A17E75",
"b  c #A47E78",
"n  c #C0654E",
"m  c #C8684F",
"M  c #C36750",
"N  c #C16550",
"B  c #C66751",
"V  c #C76751",
"C  c #C36652",
"Z  c #CA6754",
"A  c #C56952",
"S  c #C76852",
"D  c #C76854",
"F  c #C56853",
"G  c #C96951",
"H  c #C86A51",
"J  c #C86852",
"K  c #C86953",
"L  c #C96953",
"P  c #CB6853",
"I  c #CA6A54",
"U  c #C96952",
"Y  c #9F8177",
"T  c #9E8179",
"R  c #9F827A",
"E  c #9D857B",
"W  c #9F847B",
"Q  c #9F837B",
"!  c #A38176",
"~  c #A0837B",
"^  c #A1837B",
"/  c #A78178",
"(  c #A68179",
")  c #A58379",
"_  c #A1857A",
"`  c #A2847A",
"'  c #A2867B",
"]  c #A1827D",
"[  c #A2837E",
"{  c #A4837C",
"}  c #A1847C",
"|  c #A2847C",
" . c #A2857D",
".. c #A1847E",
"X. c #A0857E",
"o. c #A2857F",
"O. c #A1867F",
"+. c #A3867E",
"@. c #A2877E",
"#. c #A4867C",
"$. c #A2847C",
"%. c #A8837A",
"&. c #A0887C",
"*. c #A3887E",
"=. c #A08780",
"-. c #A38680",
";. c #A28780",
":. c #A38682",
">. c #A38783",
",. c #A58681",
"<. c #A48781",
"1. c #A38781",
"2. c #A08981",
"3. c #A38881",
"4. c #A38B81",
"5. c #A28982",
"6. c #A58A81",
"7. c #A48982",
"8. c #A38981",
"9. c #A98D84",
"0. c #A99086",
"q. c #A69289",
"w. c #A7938A",
"e. c #A7938C",
"r. c #A7938C",
"t. c #A9928C",
"y. c #AA938D",
"u. c #A8948D",
"i. c #A9958E",
"p. c #A8958F",
"a. c #A9968F",
"s. c #A9948D",
"d. c #AA988E",
"f. c #AB998F",
"g. c #A99690",
"h. c #AA9791",
"j. c #AA9691",
"k. c #A99891",
"l. c #AA9992",
"z. c #AC9891",
"x. c #AB9892",
/* pixels */
"i i i i i u 0 8 w d g h S D S S S S H S C i i i i i i i i y 0 8 e @.;./ D D M i i i i i i i i i ",
"u i u i i u 8 0 w g f h S P P P K P S I C i i i i u i i i i 8 8 e @.@./ S Z S u i i i i i i i i ",
"u y u u y t 8 8 w g l h p p p n p p N a p u u u y u u y y t 8 < w / ;./ a N p u u u y u y i y i ",
"8 8 0 8 0 8 : ; 9 @.#.c @ O * , 3 7 0 8 0 8 8 8 8 8 0 0 0 8 < : 9 ~ <.c @ O = 8 0 8 8 8 8 0 0 7 ",
"0 0 0 0 0 8 ; ; 9 W @.c O O @ ; 7 , 8 8 8 8 8 8 0 0 0 0 0 8 : ; 9 T 6.c O O * 8 8 8 8 8 0 0 0 0 ",
"7 7 8 7 8 7 ; ; 6 *.6.c O O O ; ; ; 8 8 7 8 8 8 7 7 8 7 8 7 ; ; 6 @.;.c O O @ 8 8 8 8 7 7 8 7 8 ",
"O @ O X X X o . # r.d.5.o X o X . + : < , < < ; = O @ o X X X . @ W Y c o o o , , ; @ O O O = O ",
"O O O X X . X   + r.z.E o . . .   o ; ; , , ; ; O O O   . . X   + ~ ' c o   o , : ; O O O O O O ",
"- # # + + + @ + % t.z.5.@ @ @ + + + 6 5 5 6 6 5 - * @ @ + + # + % @.5.c @ + @ 6 6 , - * # # - - ",
"d d d d s l ~ ~ ' r.i.y.~ @.E s s s d d s g g g g s l ] *.@.W W @.r.i.q.~ @.! d s g g d d d d g ",
"g d g g s l @.;.5.z.h.i.*.<.W g d k s g s g s l g g l @.6.#.*.@.>.h.h.y.E <.W s s g s s g g g g ",
"j j j j h z ! ! / 9.0.6.v v c h h h h d d l z l h h z Y ~ ! ! v / 9.9.9.! v v d h h h d d g g g ",
"C D V P P C u i i i i u 0 0 0 i i u 0 8 e #.@./ C D C i i i i i i i i u 0 0 0 i i u 8 8 e g g g ",
"V Z P V D F i i i i i u 8 8 0 i i i 8 8 e ~ @.! P P S i i i i i i u i u 8 8 r i i i r < 0 g g g ",
"n a a N N p u u u u u t 8 0 0 y u t 8 < w ] ;.! p p a y y y y y t y u t 8 7 8 y y t < 8 9 g l l ",
"O @ * 0 8 0 8 0 0 8 8 8 8 0 8 : < ; O & - @.<.c & + & 3 ; 3 ; 3 7 ; , , , , , < < , * O 1 @.5./ ",
"O O O 0 8 0 8 8 8 8 0 8 0 0 8 , < ; O O 1 Q ;.c @ @ O < < < ; , ; ; , ; ; 3 , ; 7 , O O 1 @.;.] ",
"O @ * 8 8 8 8 0 8 7 8 7 7 7 7 < ; ; & o 1 E 7.c O + O ; ; ; , , 5 < : 7 , , : , ; - O O - ' ] ' ",
"& O O < , , 0 8 7 O O & O @ & O & O . . $ r.z.5.X X X o o o + O & , < , , 7 ; @ O O X . @ Q ;.] ",
"+ O O ; ; < 8 r 8 O O O O O + O O o . . + r.z.2.. . . X . . & O & ; ; , ; : ; O O O . . + ~ ;.@.",
"- 1 - 6 9 7 7 w 7 # - - - # - 1 - - @ + % y.z.5.+ @ + # @ @ # # - 7 6 6 5 7 5 # @ @ @ + % ' 5.@.",
"/ ;.Y d d s g f s s d s s s g ~ @.) ' ~ @.i.i.t.@.] ;.Q ] Q g g g d g k s g s g d l ~ ~ ' r.y.r.",
"#.<.@.s s d g g g g d s g f l @.W @.@.;.5.h.h.r.@.@.@.#.#.T l g g g f g g g f f s l *.5.5.i.z.d.",
"/ ! v d j d h d d l z d h h z / ! / / b / 9.0.9.v v v ! ! v d d d l l h j j h h h z ! / ! 9.0.9.",
"i i i u i u 0 8 0 @.E / D C S D D S D K D i i u 0 0 0 i i u 0 8 e #.@./ C K S m S S u i i i i u ",
"i i i i i u 8 8 e ~ 5./ P P P V S P S H S u i i 0 8 0 i i u 0 0 e ~ #./ P P P P H H i u i i u u ",
"u u u u u u 8 < e @.;./ p p n n C C a C a u u t 8 8 0 u y t 8 < w @.@./ p p n n a p u u u u u u ",
"0 8 8 8 8 8 , , 9 ] ;.v 7 2 5 8 0 0 0 7 0 0 8 0 8 8 8 8 0 8 & O 1 ] ;.v < 5 3 8 0 0 8 8 8 8 8 8 ",
"8 r 8 r 8 8 < < 7 ' @.c 7 : ; 8 0 0 8 0 8 8 8 8 0 r 0 8 0 8 & X 1 @.@.c , , < 0 0 8 8 8 8 8 8 0 ",
"8 8 < < 7 7 ; ; 6 @.@.c 2 ; ; 8 7 7 8 8 8 8 8 7 8 < 7 8 7 7 & O 1 @.;.Y , , < < 8 8 8 8 8 8 7 0 ",
"O & + & O + X   @ E #.c @ + O & O = , < ; < : ; @ + O O O O X . # i.z.4.@ O * , : , , , < , 2 3 ",
"O O O O O O .   + { { v O O O O @ O ; 2 , ; : ; O O O O O O X . + r.z.*.O O O ; ; , , , 3 ; ; 3 ",
"# # - - - - # + $ @.5.Y 1 # 1 # * - 6 7 5 6 9 5 @ - # # - - @ + % r.z.5.1 - > 9 5 5 9 5 5 7 7 5 ",
"d d g ] @.T @.@.' y.r.y.@.] ~ s s s s d s k d s g s s l d d @.~ ' y.i.t.~ ] T d s s s d d g g g ",
"g g z ;.*.*.*.#.>.h.p.y.;.<.@.s d l d d l d d s g g g d k l <.;.2.k.z.r.@.<.' g d l s s g l g g ",
"d d h ~ ) ! ! ! / 9.9.9.Y v c h h h d d d s g h h h j h d h v / ~ 9.9.9.v v v h h h d h d l l g ",
"8 8 0 i u i i i i i i y 0 0 0 i i u 8 8 w g g j S P a i u i u i i i i y 0 0 0 i i u 8 8 e ] @.] ",
"8 8 r i i i u i i i i u 8 7 0 i i i 0 8 w d f h S P S u i i i u i i i u 8 8 0 i i u 8 8 e :.] @.",
"8 7 8 y u u u u y u y y 8 0 0 y u t 7 8 8 g l z p p p u u u u u u u u t 8 0 0 y u t 8 7 w / @.] ",
"O O & 0 8 8 0 8 0 0 r 7 0 8 0 0 8 8 3 2 9 #.*.c 5 , < 0 0 0 8 0 8 8 8 0 8 8 8 0 0 8 O O 1 @.] @.",
"O & = 7 0 r 0 0 0 0 0 0 0 0 0 0 r 8 3 ; 9 ~ ;.c 7 ; 7 8 0 8 0 0 0 0 8 8 0 7 8 8 8 8 O O - ~ @.~ ",
"O & & 7 7 7 7 7 7 8 7 8 7 7 7 7 7 7 2 ; 5 ] 6.v ; ; ; 8 7 8 7 7 7 7 7 8 7 8 7 8 7 < O O - ' #.{ ",
"X X X & = = @ = O O = O @ & = = & O o . # r.z.5.X o X O = O @ O = & O @ = & O & O O o . $ r.i.i.",
". X X & X O = X O O O O O O O O O + X . + y.l.5.X   . O O O O O O O O O O O O + O O . . @ r.h.i.",
"@ + @ $ - - # $ - # - - - # - # * # # + % q.h.5.+ # @ $ 1 1 # - - # $ # # # - 1 1 $ $ @ % y.r.h.",
"Q @.c g d g d d d d d d d d d g g l @.T @.i.h.t.E @.] Q @.T g d d d d d g d l @.] E r.q.r.r.i.i.",
";.@.Q g d g g g g g g g g g g g g l ' @.@.i.i.t.@.] @.@.#.T g g g g d d g g d ' @.@.i.h.r.r.u.i.",
"] ;.Q l g g g g g g g g d g g g g g @.] @.i.y.q.@.@.] @.@.W g g g g g g g g z @.] @.i.i.i.y.i.i."
};
