/* XPM */
static char *e6b3bfe9333c4d79c36e78443b080c08Koruxb7WnpzmmXVZ[] = {
/* columns rows colors chars-per-pixel */
"48 48 244 2 ",
"   c #3D1C0B",
".  c #3C2918",
"X  c #36341F",
"o  c #3D3725",
"O  c #401D0A",
"+  c #4B2515",
"@  c #432A16",
"#  c #4B2A1D",
"$  c #462B1A",
"%  c #522D1C",
"&  c #55281B",
"*  c #47351D",
"=  c #52341E",
"-  c #56381B",
";  c #683A1B",
":  c #462D21",
">  c #463324",
",  c #4C3526",
"<  c #4D3A23",
"1  c #4C3C2A",
"2  c #453928",
"3  c #513625",
"4  c #5B3622",
"5  c #533C25",
"6  c #553D2A",
"7  c #5B3C2A",
"8  c #54352A",
"9  c #4D3D35",
"0  c #643A23",
"q  c #6D3D24",
"w  c #633F29",
"e  c #6D3E2B",
"r  c #663621",
"t  c #713924",
"y  c #793E2E",
"u  c #6A3B31",
"i  c #6E451F",
"p  c #4C4028",
"a  c #53432B",
"s  c #5B442D",
"d  c #584226",
"f  c #544233",
"g  c #5A4533",
"h  c #5C4B34",
"j  c #5A4839",
"k  c #5D513A",
"l  c #62432D",
"z  c #6B442C",
"x  c #6C492B",
"c  c #654626",
"v  c #754224",
"b  c #7B4525",
"n  c #73432B",
"m  c #7D452B",
"M  c #754B2C",
"N  c #7D4C2D",
"B  c #77522C",
"V  c #634532",
"C  c #644B34",
"Z  c #6D4B33",
"A  c #624C3B",
"S  c #694E3B",
"D  c #6B4432",
"F  c #734B34",
"G  c #7C4D34",
"H  c #734E39",
"J  c #7D4F39",
"K  c #734634",
"L  c #6C5336",
"P  c #64523C",
"I  c #6C533A",
"U  c #6D5A3C",
"Y  c #655134",
"T  c #745135",
"R  c #7C5233",
"E  c #74533B",
"W  c #7C533B",
"Q  c #755A3C",
"!  c #5A4540",
"~  c #675744",
"^  c #745442",
"/  c #745B44",
"(  c #785845",
")  c #714F44",
"_  c #786142",
"`  c #893F26",
"'  c #8E481E",
"]  c #824425",
"[  c #8A4425",
"{  c #894A25",
"}  c #84452C",
"|  c #8C452A",
" . c #834B2C",
".. c #8B4B2C",
"X. c #824924",
"o. c #924C2C",
"O. c #9A4D2B",
"+. c #944925",
"@. c #8B512D",
"#. c #82522A",
"$. c #94522D",
"%. c #9C532C",
"&. c #98582F",
"*. c #824C32",
"=. c #8B4D33",
"-. c #864A36",
";. c #924D34",
":. c #974D37",
">. c #845233",
",. c #8C5334",
"<. c #83543C",
"1. c #8B543B",
"2. c #82593B",
"3. c #8B5B3C",
"4. c #8F5B33",
"5. c #945333",
"6. c #9A5435",
"7. c #945B36",
"8. c #9A5935",
"9. c #93553A",
"0. c #9B563A",
"q. c #945B3C",
"w. c #9C5B3B",
"e. c #AA572E",
"r. c #B3562D",
"t. c #B35D2D",
"y. c #B95D2C",
"u. c #A35633",
"i. c #AC5534",
"p. c #A45A34",
"a. c #AB5B34",
"s. c #A2553A",
"d. c #A35B3C",
"f. c #AB5C3C",
"g. c #A8573A",
"h. c #B35734",
"j. c #B45C33",
"k. c #BB5C35",
"l. c #B35D3A",
"z. c #BB5D3A",
"x. c #A24F31",
"c. c #94633D",
"v. c #9C633C",
"b. c #8A623E",
"n. c #B7612D",
"m. c #A2623C",
"M. c #AC633D",
"N. c #AA6338",
"B. c #B46135",
"V. c #BC6335",
"C. c #B4633C",
"Z. c #BB643B",
"A. c #B3693D",
"S. c #BB6A3D",
"D. c #BE723E",
"F. c #C35E36",
"G. c #C05C2B",
"H. c #C36235",
"J. c #C2643B",
"K. c #C36A3D",
"L. c #CB663C",
"P. c #C2632D",
"I. c #8D5641",
"U. c #8C5C43",
"Y. c #855B45",
"T. c #935C42",
"R. c #9C5D42",
"E. c #975844",
"W. c #A35D42",
"Q. c #AB5E42",
"!. c #A4584B",
"~. c #B95E45",
"^. c #8C6244",
"/. c #8C634A",
"(. c #886647",
"). c #946343",
"_. c #9C6344",
"`. c #9C644C",
"'. c #966A4D",
"]. c #9E6A4A",
"[. c #956548",
"{. c #9B6B51",
"}. c #997356",
"|. c #A46343",
" X c #AC6343",
".X c #A26B43",
"XX c #AA6A45",
"oX c #A4654B",
"OX c #AB644A",
"+X c #A36C4C",
"@X c #AD6B4B",
"#X c #B36444",
"$X c #BB6543",
"%X c #B46A44",
"&X c #BC6B44",
"*X c #B3664B",
"=X c #BB654B",
"-X c #B36B4B",
";X c #BA6C4C",
":X c #AF724D",
">X c #B2724C",
",X c #BC724C",
"<X c #BA7147",
"1X c #A76C53",
"2X c #AC6D52",
"3X c #B36C52",
"4X c #BB6D52",
"5X c #A67254",
"6X c #A97559",
"7X c #B37253",
"8X c #BB7252",
"9X c #B97954",
"0X c #BC7459",
"qX c #BC7B5B",
"wX c #B57759",
"eX c #AC7A63",
"rX c #C45F41",
"tX c #C26542",
"yX c #C36B43",
"uX c #C26D4B",
"iX c #C96A45",
"pX c #C57344",
"aX c #C3734B",
"sX c #C37B4D",
"dX c #CA7649",
"fX c #C26E53",
"gX c #C27353",
"hX c #CC7351",
"jX c #C37A54",
"kX c #CB7A54",
"lX c #C5775B",
"zX c #C47B5C",
"xX c #CA7D5A",
"cX c #C97259",
"vX c #D37B55",
"bX c #D57F5B",
"nX c #D0704A",
"mX c #BC896A",
"MX c #BD9069",
"NX c #CB845B",
"BX c #C78357",
"VX c #D28357",
"CX c #CC804F",
"ZX c #D38561",
/* pixels */
"6 s s c 9 1 6 a V g a h s a f 1 < l C 5 > a j F S V s s s f 2 g s S g s g g , 2 2 < 5 C S * , 1 ",
"U././.b.f 8 s s F Z Z Z H I W ( Y.<.`.[.`.D ( 6X`..XoX+X].E 2 s F W T E Z H H I ( Y.2.I.`.U.3.V ",
"2XOX XXXS V F G *.>.>.} *.*.G I.6.q.XX=X=XW W ;X8X;XaX;XtXI.2 V N *.*.>.m } *.G 2.6.5._.7X-XOXW ",
"%X&X;X&XZ F *.9.0.9.5.;.6.5...0.C.|.|.gXfX^.R ;X>XaXdXaXiX_.a K ,.0.5.7.5.5.6.>.5.%XM.M.OX,X-XF ",
"-XfXaX%XF W >.;.6.....0.W.0.8.d.8X X@X-X0XW G -XOX,XjXsXiXT.g *...9.5.@.5.f.d.q.6.=XXX*X-X7XoXH ",
"-XgXhX%XT ^...o.8.5.8.|.|.w..X-X;X4XzX X2X*.1.4XfXgX,XkXaXq.h 1.*.8.;.5.0.|.|.q.=XuX@XlXfX>X9.F ",
";XkXxXaXF >.,.5.w.q.R.R.W.w.w.@X4X4X0X8X-X*.-.lXcX8XgXkXvXc.7  .5.8.0.R.w.W.R.q.W.uX3X4X;X;XW.z ",
",XkXkXdXG G ).9.w.w.R.0.W.XX5.-X9X-X;XgX4X*.>.jX,X9XjXhXvXoXd >.0.9.0..X0.R.|._.|.,X7X>XjX;X Xw ",
";X,XkXhXR 1.w.m.W.).oX3XXX X].@X0X=X4XBX$XI.1.iXaX9XlX;XjX`.z 7.w.OX).R.-X X|.m.XX0X4X-XBXuXQ.R ",
";X;X8XzXY (.1X3X-X_.1XwX*X#X XgX0XgX7X3XfX1.<.hXgXjXlX8XjX].Z ].7X3X`.oX3X2X;X X-X4X4X7X@X4X*XM ",
"hXsXaXkXT [.7X>XXX.X`.q.0.$XC.*X7X:X.X8XbX-.*.vXkXsXvXkXNXoXF 6X:XXX+XoXT.5.*X%X#X,X7X7XXXxX@X- ",
"..wXNX3X2.U.`.9.I.>.>.M >.Q.Q.@X!.OX|.OX5.q - } o.>XlX7X-X|.E /.).T.1.=.G N 0.s.*XOXW.oX|.W.} % ",
"@ 7 Z K j , * 7 7 % 3 a 3 % + @ & % % % O 6 > . # F ( / ( E 9 3 4 5 % = a s - # % @ + + @   % j ",
"j S s s k C s z E W Q U C 1 6 1 o * a a < I S A j V 6 j Y Z h V w / <.W L C * > > * 3 7 a a V A ",
"3.9.3._.b.c.>..X>X#X#Xf...c U.[.<.4.9.3.q..X_.Y.3.4.[._ ^.].).c.w.wX*XA.p.0.v F 3.2.3.q.1.>.w.oX",
"d.f.M.;XM.Q.$.*X%XS.Z.tX6.x T.5.:.5.o.s.u.p.8.w.*Xa.-XU.q. Xd.5.0.<XC.&XZ.#XM <.:.,...5.5.f.d.m.",
"C.d.;Xj.B.p.p.a.B.&XXXZ.9.r $.9.G ..6.a.f.C.f.&X*XZ..X^.w.A.N.e.p.j.uXD.C.#Xw N 5.,...;.d.a.M.l.",
"M.a.C.N.S.A.Z.&XK.Z.C.j.{ r M.8.9.8.6.a.C.f.#X#X XZ._.^.5.<X%XZ.S.iXS.e.N.z.r @.d.5.8.8.s.a.l.C.",
"f.C.C.N.&Xt.V.aXpXK.,XpX8.q ,X*X XM.C.C.C.f.&X&X;X&Xm.^.$.S.C.t.D.pXdXD.&X&X; d.%X X*Xf.#XZ.l.#X",
" XC.C.a.C.B.V.S.yXdX<XpX8.n gX-X-XC.C.l.l.g.-X,X*XyX@Xq.d.j.C.V.D.K.K.pXS.&Xw  X-X,X Xl.C.l.a. X",
"%X-X,XC.B.%XS.V.pXvX,XK.9.W xX;X-X#X$Xa.f.*X3X8X-XpX:Xq.XXN.C.S.Z.pXkXCX<XA.7 2X8X8XQ.=Xi.a.f.@X",
"A.-XBX%XN.,X,XK.dXaXA.A.t Z lX8Xd.*X;X#X X*X-X-X=X,X.X'.>X%X#XaX<X<XpXB.%X8.7 3XjX%X XgX#X#X-X2X",
"M.|..X Xm.,X,X%XB.B.A.pX .Z -X*Xd.#Xf.;X-X*X X XQ.,X7X5X.Xv.-XqX<X%XZ.t.aXp.s Q.4XW. XM.#X&X-X X",
"@X%X X.X.XN.A.XXA.S.A.n. .E ;X;X8X%XO.;XjX*X;X;X3X,X7X{.q.$.0.c.M.%XC.K.B.%.l *X;X;X;XO.C.jX%X8X",
":.*.G b N K c x e n z z w l 4 4 ; v v n t e n } =.-.L S Y T g < C z e z z w V s e q n m  . .] } ",
"2 * * @ : 9 k ) U Y Q / L I I V A g a > : o o $ $ V Y P I E ! A I I L U U E I I A C C g 8 > . > ",
"U.).].+X^.^ ^.eX}.'.[.T.I.[.6X6X1X1X1XT.,.F T 3.v.>Xm.@X>XXXV c 6XeX'.'.[.T.I.T.1X+X+X2X`.I.W Y.",
"~.vXhXuX>X(.].qX1X2X|.0.9._.1X5X2X@X-X|.u.=.,.s.%XuXA.$X<X>XC I wXqX2XOXR.9.E.1X6X5X+X>X-Xw.7.7.",
"XXVXjXaX7X(.5XwXwXOXQ.W.9.].MXMXwX7X@X*Xf.0.8.f.-XjXgXxXjX,XS ^ 7X7X2XOXXX0.).7XMXmX5X3X-Xa.8.8.",
">XCXVXVX>Xb. X*X@XW.d.d.8.0.-X9X:X>XXXA.p.$.4.%XaXsXCXZXVXaXK G 3XOXOXd.w.5.w.XX9X9X>X-XC.a.8.6.",
",XvXNXkX-X}.6XoX_.R.d.8.W.w.d.;X0X4X;X&X~.w.7.*X,XgXkXNXBX;XL Y.@X|.w.W.v.8.s.d.~.-XgX4X;X$Xf.R.",
";XVXNXkX8X[.W.oXQ.f. Xd.w.s.f.g.3X-X-X&XuXd.8.*X%X,XvXNXVX;Xx 2.oX_.Q.Q.f.g.u.d.6.XX7X3X%X&Xf.w.",
"aXbXCXkX-X[.).|.9.,.|. X..s.d.Q.v.4X-XM.#X~.6.#X%X&XhXBXVX%Xx R |.R.{ |.OX0.0.d.f. X1X=X*X*X#X7.",
"fXNXBXkX7X^.I.!.=.:.OXW.W.W.W.s. X3X-X#Xl.w.7.C.uX;XgXNXxX;XZ ^ E.9.=.|._.R.w.w.v.d.@X-X Xg.~.8.",
"aXdXsXsX9X^.R 1.,.9.w.9.d.d.u.6.Q.T.R.*X&X X0.J.$X%X%XjXVXuXF V 9.,.;.0.w.s.d.|.5.W.W.R..X=XrX0.",
"d.%X<X&X-X).x c t m m } =.:.=.} I.Y.F >.=.m 1.W.N.N.XX<X&X;XT w w r n *.} -.:.=.} E.-.J G 1.} T ",
"5 D W <.J / I C , > > : # 7 3 8 # $ 1 < 5 A a = 7 c K H G <.U A j 1 > , : # 8 7 3 % # , $ 3 a Y ",
"C V k C h h A A ~ ~ ~ ~ / / P ~ E S I Z C H ( Z C g j k V C h A S ~ k ~ / ^ / / L P I ~ ^ ^ U E ",
"g.s.1.U.Y.2.,.>.W M J 3.|.g.w.w.].x W 9._.OX#XC.#Xd.U./.[.T.T.I.,.3.K G [.|.m.N.v.@X`.D G R..X*X",
"V.K. X X|.w.s.d.5.,. .f.tXH.P.H.M.v 9.l.yXaXJ.P.L.V.v.[.|.W.d.w.d.w.m } *XtXL.F.y.k.a.B  .#XaXL.",
"J.iXC.W.9.$.a.i.f.N ..t.k.B.y.K.F.` >.tXK.nXiXH.K.H.d.q.W._.{ p.a.N. . .K.y.Z.z.H.rXk.} o.uXiXiX",
"K.Z.u.8.@.o.p.j.z.b [ k.k.z.P.J.H.[ #.Z.S.K.H.K.K.iXd.} :.w.@.%.e.j.{ } F.t.j.k.H.J.H.} %.Z.L.K.",
"K.C.o.@.....$.a.k.b { z.l.j.h.z.J.o.@.J.K.tXH.K.K.S.N.#.....5.{ i.z.[ m ~.y.j.j.n.V.V.b p.Z.K.H.",
"J.#X:.6.....O.k.k.] ..$Xj.r.r.r.h.| @.rXtXtXJ.uXtXl.M.|.w.| o.| e.V.+.` tXk.h.e.t.k.y.m g.iXJ.S.",
"V.%XW.d.$.[ o.V.B.b m C.C.t.n.t.j.| >.tX$XC.Z.&XtXM.8.|.XX8.[ -.p.Z...n Q.l.i.h.y.h.t.} g.iXa.Z.",
"V.C.p.p.%.{ +.n.a.n ; o.i.e.n.k.V.[ { F.J.V.H.J.Z.N.%.%.N.p.+...j.k.] d #.d.l.F.V.z.V.b u.V.V.S.",
"H.u.6.e.e.| 6.V.h.} e ;.x.i.a.l.f.} b h.C.Z.J.L.F.a.u.O.O.e.O.{ k.G.' 0 { %.e.r.r.h.a.y ;.k.V.J.",
"$.t e t v = r @.' K 5 x } ' b } ..F C ......%.x.| n e r v t r = X.{ y f u t t ; X.m ; h G ..o.5."
};
